#define 764e42e6a33147f4bef858bcc68ed81dc2tSAFAD5Rkp3pCQ_width 14
#define 764e42e6a33147f4bef858bcc68ed81dc2tSAFAD5Rkp3pCQ_height 14
static char 764e42e6a33147f4bef858bcc68ed81dc2tSAFAD5Rkp3pCQ_bits[] = {
  0x00, 0x00, 0xE0, 0x03, 0xE0, 0x03, 0xE0, 0x07, 0xE6, 0x07, 0xF6, 0x03, 
  0xEE, 0x03, 0xFC, 0x1B, 0xF8, 0x1B, 0xE0, 0x1F, 0xE0, 0x0F, 0xE0, 0x03, 
  0xE0, 0x03, 0xC0, 0x03, };
