#define d8258366728a4d5eb5fe7ec23eeb1124PLdvwHeofkfHti6E_width 16
#define d8258366728a4d5eb5fe7ec23eeb1124PLdvwHeofkfHti6E_height 16
static char d8258366728a4d5eb5fe7ec23eeb1124PLdvwHeofkfHti6E_bits[] = {
  0x00, 0x00, 0x80, 0x03, 0x98, 0x02, 0xE8, 0x07, 0x38, 0x18, 0x18, 0x30, 
  0x0E, 0x20, 0x2A, 0x28, 0x0E, 0x20, 0x0C, 0x61, 0x0C, 0x60, 0x0E, 0x60, 
  0x0E, 0x60, 0x0C, 0x60, 0xFC, 0x7F, 0x00, 0x00, };
